# xmcd
#
# Track frame offsets:
# 150
# 14872
# 44070
# 46489
# 61510
# 70459
# 93076
# 109532
# 133650
# 153202
# 164699
# 189812
# 209365
# 244962
# 263245
#
# Disc length: 3907 seconds
#
# Revision: 0
# Processed by: cddbd v1.5.1PL2 Copyright (c) Steve Scherf et al.
# Submitted via: Audion 3.0.2 (http://www.panic.com/audion/)
#
DISCID=d40f410f
DTITLE=direct - fixafat
DYEAR=1900
DGENRE=
TTITLE0=q
TTITLE1=q
TTITLE2=q
TTITLE3=q
TTITLE4=q
TTITLE5=q
TTITLE6=q
TTITLE7=q
TTITLE8=q
TTITLE9=q
TTITLE10=q
TTITLE11=q
TTITLE12=q
TTITLE13=q
TTITLE14=q
EXTD=
EXTT0=
EXTT1=
EXTT2=
EXTT3=
EXTT4=
EXTT5=
EXTT6=
EXTT7=
EXTT8=
EXTT9=
EXTT10=
EXTT11=
EXTT12=
EXTT13=
EXTT14=
PLAYORDER=
